<svg xmlns="http://www.w3.org/2000/svg" viewBox="0 0 1200 800" width="1200" height="800">
  <g fill="none" stroke="#2DD4BF" stroke-width="1" opacity="0.06">
    <path d="M-50 100 C 250 20, 550 180, 850 60 S 1300 140, 1300 60" />
    <path d="M-50 220 C 250 140, 550 300, 850 180 S 1300 260, 1300 180" />
    <path d="M-50 340 C 250 260, 550 420, 850 300 S 1300 380, 1300 300" />
    <path d="M-50 460 C 250 380, 550 540, 850 420 S 1300 500, 1300 420" />
    <path d="M-50 580 C 250 500, 550 660, 850 540 S 1300 620, 1300 540" />
    <path d="M-50 700 C 250 620, 550 780, 850 660 S 1300 740, 1300 660" />
  </g>
</svg>
